<?xml version="1.0" encoding="UTF-8"?>
<svg xmlns="http://www.w3.org/2000/svg" viewBox="0 0 512 512">
  <defs>
    <linearGradient id="g" x1="0" x2="1" y1="0" y2="1">
      <stop offset="0%" stop-color="#16a34a"/>
      <stop offset="100%" stop-color="#22c55e"/>
    </linearGradient>
  </defs>
  <rect width="512" height="512" rx="96" fill="#0b1220"/>
  <g transform="translate(96,64)">
    <!-- Leaf -->
    <path d="M224 64c-88 0-160 72-160 160 0 56 40 112 96 128 80 24 160-32 176-112 16-80-24-176-112-176z" fill="url(#g)"/>
    <!-- Stem -->
    <path d="M224 64c16-32 48-48 80-48 0 32-24 64-56 72" fill="#16a34a"/>
    <!-- Heart overlay to hint 'health' -->
    <path d="M176 232c-16-28-56-36-80-12-12 12-16 28-12 44 4 16 16 28 32 36 20 8 40 8 60 0 16-8 28-20 32-36 4-16 0-32-12-44-24-24-64-16-80 12z" fill="#dcfce7" fill-opacity="0.15"/>
  </g>
</svg>
